<svg xmlns="http://www.w3.org/2000/svg" viewBox="0 0 456.92 437.53"><g id="Layer_2" data-name="Layer 2"><g id="Cat_Paw" data-name="Cat Paw"><path d="M77.41,99.63c5.94-92.84,94.28-129.17,151.35-72.8C286.15-29.31,374,7,380,99.77c4.48,1.12,9.24,2.14,13.89,3.5,34.47,10.11,60.2,43.09,62.71,82.38,3,46.53-13.42,84-54,109.45a12.85,12.85,0,0,0-5.11,8.36C388.12,383.59,327.74,438,247.19,437.53c-25-.14-50.64.4-74.9-4.62C112.74,420.57,67.47,367,62,306.31c-.55-6.08-3-9.12-8.08-12-51.11-29.33-69.66-102.36-39-152.77C28.24,119.43,43.35,109.28,77.41,99.63ZM228.77,418.72c16.44-1.35,33.23-1,49.24-4.34,56.7-11.89,96.83-60.41,99.29-118.44.28-6.66,1.2-12,8.15-15.37,37.83-18.44,52.77-50.52,51.08-90.78-1.64-38.87-28.4-67.32-63.15-69.6-12.4-.82-14.12-2.63-14.12-15,0-19.25-4.06-37.4-14.81-53.68-24.91-37.77-72-41.41-102.37-7.93-12.67,14-14.24,14-26.57.26-31-34.47-80-29.85-104,9.82C102.15,69.09,98.2,86,98.08,103.82,98,118,96.93,119.15,83.39,120.23,61.38,122,44.6,132.54,32.9,151c-27.32,43.2-8.61,107.51,37.74,128.89,7.75,3.58,10.55,8.29,11,16.6,3.11,51.56,28.85,88.08,75.12,110.29C179.58,417.74,204.05,418.42,228.77,418.72Z"/><path d="M133.21,308.15c.73-15.94,9.65-32.87,27.95-43.12,11-6.14,17-15,22-25.62,3.31-7.16,6.4-14.63,11-21,18.33-25.37,53.85-26.49,70.05.06,13.24,21.69,26.25,41.64,46.59,58.17,20.09,16.33,20.09,48,5.64,68-14.32,19.83-42.72,26.67-66.9,16.09a22.85,22.85,0,0,1-4.44-2.17c-10.31-7.51-20.07-6.91-31-.31-14.92,9-31.26,9.83-47.75,3.93C145.2,354.67,132.71,336.14,133.21,308.15Zm20.17,4c-.32,17.16,9.05,28.75,24.26,32.23,11.78,2.69,22.23-.67,32.13-6.53,13.17-7.8,26.19-7.93,39.33,0a71.12,71.12,0,0,0,7.93,4c17.67,7.74,37.37,2.15,45-12.72,8.14-15.83,2.32-37.78-14.29-46.45-15.85-8.28-24.5-21.39-31.32-36.78-2.53-5.69-5.13-11.57-8.84-16.5-9.69-12.88-26.53-12.9-36.27,0-3.72,4.91-6.2,10.84-8.79,16.51-7,15.25-15.26,28.8-31.37,36.74C159,288.67,154.08,300.47,153.38,312.19Z"/><path d="M46.1,196.86c.26-3,.35-5.93.8-8.86,3.28-21.48,16.15-37.15,33-40.25,17.77-3.27,36.07,6.23,46.77,24.89,10.17,17.74,13,36.7,6.6,56.34-10.42,32-44.84,39.85-68.34,15.64C52,231.37,46.88,215,46.1,196.86ZM116,208.48c0-12.73-4.82-25-13-33.24-12.75-12.78-27.89-9.46-34,7.61-4.32,12.14-2.86,24.07,2.44,35.58,6.38,13.89,18,22,27.73,19.61C109.41,235.54,116,223.9,116,208.48Z"/><path d="M320.68,212.56c.72-23.52,6.82-41.28,22.35-54.62,22.43-19.25,52-12,63.41,15.25,10,23.9,3.19,55.49-15.72,73.18-22.93,21.44-54.57,14.33-65.67-15.08C322.41,224.29,321.59,216.61,320.68,212.56Zm19.49-4.38c1.86,6.58,2.81,13.6,5.77,19.63,5.67,11.5,16.94,13.75,27.4,6.45,16-11.18,22.42-39.4,12.75-56.24-6.62-11.54-17.95-14.06-28.33-5.79C346.43,181.26,341.83,193.68,340.17,208.18Z"/><path d="M211.31,108.58c.11,15-3.58,28.8-13.64,40.3-14,16-35,17.47-51.21,3.9-23.84-19.92-27.79-64.36-7.84-88.29,14.91-17.89,38-19,54.76-2.7C204.82,72.93,211.27,89.76,211.31,108.58Zm-19.8,5c-.89-17-3.49-28.41-12.55-37.27-8.31-8.13-17.51-7.51-24.76,1.29-12.41,15-9.85,46.3,4.83,59.15,8.25,7.22,18,7.05,23.81-2.2C187.56,127,189.78,117.93,191.51,113.55Z"/><path d="M244,109.62c2-17,6.2-32,17-44.64,18.32-21.38,46.81-19.12,61.61,4.72,13.91,22.39,11.28,57-5.85,77.17-18.86,22.18-48.51,19.85-62.37-5.82C249.23,131.49,247.38,120.15,244,109.62Zm69.34-4.31c-3.3-10.11-4.69-18.09-8.36-24.84C298.23,68,286.17,67.37,276.64,78c-12.07,13.46-13.95,39.86-3.89,54.69,7.49,11,19.36,12.79,27,2.05C306.1,125.75,309.26,114.47,313.35,105.31Z"/></g></g></svg>